# xmcd
#
# Track frame offsets: 
#        150
#        9767
#        26830
#        37150
#        57080
#        70340
#        81262
#        95782
#        115800
#
# Disc length: 1790 seconds
#
# Revision: 1
# Processed by: cddbd v1.5.2PL0 Copyright (c) Steve Scherf et al.
# Submitted via: ExactAudioCopyFreeDBPlugin 1.0
#
DISCID=7306fc09
DTITLE=Μπιθικώτσης Γρηγόρης - Ρωμιοσύνη- 1966, Μ. Θεοδωράκης-Γ. Ρίτσος
DYEAR=1990
DGENRE=Έντεχνη λαϊκή
TTITLE0=Αυτά τα δένδρα 
TTITLE1=Όλοι διψάνε 
TTITLE2=Όταν σφίγγουν το χέρι 
TTITLE3=Τόσα χρόνια 
TTITLE4=Μπήκαν στα σίδερα 
TTITLE5=Δέντρο, το δέντρο 
TTITLE6=Ποιος να το πει 
TTITLE7=Θα σημάνουν οι καμπάνες 
TTITLE8=Τραβήξανε ψηλά 
EXTD=
EXTT0=
EXTT1=
EXTT2=
EXTT3=
EXTT4=
EXTT5=
EXTT6=
EXTT7=
EXTT8=
PLAYORDER=
